<svg id="Layer_1" data-name="Layer 1" xmlns="http://www.w3.org/2000/svg" viewBox="0 0 190.98 85.9"><defs><style>.cls-1{fill:#262121;}.cls-2{fill:#fcd843;}.cls-3{fill:#fc9611;}.cls-4{fill:#252120;}.cls-5{fill:#292421;}.cls-6{fill:#2a2521;}.cls-7{fill:#262120;}.cls-8{fill:#f44d23;}.cls-9{fill:#a92300;}.cls-10{fill:#fff;}</style></defs><path class="cls-1" d="M150.14,51.82A51.93,51.93,0,0,0,46.28,52H150.14ZM65.64,15.9A49,49,0,0,1,80.4,6.75,49.59,49.59,0,0,1,95.75,3.41c.6,0,.82.1.78.71,0,.15,0,.3,0,.45,0,.44,0,.89,0,1.33,0,1.42,0,2-.45,2.31a5.32,5.32,0,0,1-2.09.4A42.82,42.82,0,0,0,69.47,19.26c-.66.58-1,.71-1.64,0A21.14,21.14,0,0,0,65.62,17C65.14,16.58,65.15,16.35,65.64,15.9ZM54.75,49.22c0,.83-.29,1.2-1.16,1.07a10.52,10.52,0,0,0-1.61,0c-.65-.07-1.68.35-2.18-.16s0-1.52,0-2.3A48.09,48.09,0,0,1,62.18,19.37c.38-.43.61-.52,1-.05.77.85,1.59,1.66,2.44,2.44.49.45.51.73,0,1.25a42.54,42.54,0,0,0-8.89,15.36A41.39,41.39,0,0,0,54.75,49.22Zm10.76,1.05c-2.26,0-4.53,0-6.8,0-.54,0-.71-.12-.67-.7A40.2,40.2,0,0,1,68,25.4c.43-.5.68-.6,1.2-.08Q81.45,37.59,93.7,49.82c.09.09.17.2.38.45Zm31-15V47.63l-.25.14c-.59-.64-1.17-1.29-1.78-1.91Q83.12,34.49,71.74,23.14c-.62-.61-.65-.9,0-1.49a40.34,40.34,0,0,1,24-9.86c.84-.06.69.41.69.88Zm3.33-28.2a20.43,20.43,0,0,0,0-3c0-.58.2-.77.71-.64a48.3,48.3,0,0,1,29.76,12.12c1,.88,1,.89.09,1.81-.66.66-1.36,1.3-2,2-.47.52-.77.57-1.33.07a42.9,42.9,0,0,0-19.19-9.95,33.91,33.91,0,0,0-6.72-1C100.19,8.51,99.72,8.21,99.85,7.09Zm0,40.77V13.41c0-1.64,0-1.65,1.64-1.51a40,40,0,0,1,23,9.67c.75.65.7,1,0,1.65q-12,11.89-23.86,23.83C100.5,47.27,100.27,47.48,99.87,47.86Zm37.89,2.42c-.88,0-1.75,0-2.62,0H102.23l13.85-13.83c3.65-3.65,7.32-7.29,11-11,.54-.55.84-.68,1.42,0a40.28,40.28,0,0,1,9.9,24.14C138.39,50.11,138.29,50.3,137.76,50.28Zm8.28,0c-.58-.05-1.18,0-1.92,0s-1.79.38-2.26-.19-.23-1.6-.32-2.43A43,43,0,0,0,130.9,23.24c-.64-.72-.64-1.11.07-1.71a19.66,19.66,0,0,0,2.14-2.14c.49-.56.76-.42,1.18.06a48.66,48.66,0,0,1,11,20.74,54,54,0,0,1,1.4,9.29C146.78,50,146.69,50.33,146,50.28Z"/><path class="cls-2" d="M69.22,25.32c-.52-.52-.77-.42-1.2.08A40.2,40.2,0,0,0,58,49.58c0,.58.13.71.67.7,2.27,0,4.54,0,6.8,0H94.08c-.21-.25-.29-.36-.38-.45Q81.46,37.58,69.22,25.32Zm-3,23.28h-.73c-1.49,0-2.28-.39-2.47-1.25A2.3,2.3,0,0,1,63,47c0-1.17.79-1.72,2.55-1.72.24,0,.49,0,.73,0A1.68,1.68,0,0,1,68,46.93,1.7,1.7,0,0,1,66.26,48.6ZM68,41.89a5,5,0,1,1,5-5.08A5,5,0,0,1,68,41.89Zm10.08,6.7a5,5,0,1,1,5-5.1A5.05,5.05,0,0,1,78.11,48.59Z"/><path class="cls-2" d="M124.55,21.57a40,40,0,0,0-23-9.67c-1.64-.14-1.64-.13-1.64,1.51V47.86c.4-.38.63-.59.85-.81q11.93-11.92,23.86-23.83C125.25,22.55,125.3,22.22,124.55,21.57Zm-22.88-.33a7.18,7.18,0,0,1,2.68-2.68,1.65,1.65,0,0,1,.46-.12,1.72,1.72,0,0,1,1.55.94,1.47,1.47,0,0,1-.16,1.75,19.57,19.57,0,0,1-2,2,1.49,1.49,0,0,1-2,0A1.43,1.43,0,0,1,101.67,21.24ZM105.77,36a5,5,0,1,1,5-5.11A5,5,0,0,1,105.77,36ZM112.46,26a5,5,0,1,1,5-5.1A5,5,0,0,1,112.46,26Z"/><path class="cls-2" d="M95.83,11.79a40.34,40.34,0,0,0-24,9.86c-.69.59-.66.88,0,1.49q11.4,11.34,22.75,22.72c.61.62,1.19,1.27,1.78,1.91l.25-.14v-35C96.52,12.2,96.67,11.73,95.83,11.79ZM93,36.87c-.24,0-.49,0-.73,0h-.42c-1.3,0-2.06-.64-2.06-1.69s.76-1.65,2.08-1.67c.38,0,.76,0,1.14,0a1.68,1.68,0,1,1,0,3.35Zm-6.57-5a8.38,8.38,0,1,1,8.38-8.37A8.41,8.41,0,0,1,86.46,31.84Z"/><path class="cls-2" d="M127,25.47c-3.63,3.68-7.3,7.32-11,11L102.23,50.27h32.91c.87,0,1.74,0,2.62,0,.53,0,.63-.17.59-.67a40.28,40.28,0,0,0-9.9-24.14C127.87,24.79,127.57,24.92,127,25.47ZM113.15,46.92h-.94c-1.5,0-2.28-.57-2.28-1.67s.78-1.68,2.27-1.68h.94a1.68,1.68,0,1,1,0,3.35Zm21.08-7.48A8.38,8.38,0,1,1,125.9,31,8.39,8.39,0,0,1,134.23,39.44Z"/><path class="cls-3" d="M67.83,19.24c.61.73,1,.6,1.64,0A42.82,42.82,0,0,1,94,8.61a5.32,5.32,0,0,0,2.09-.4c.45-.29.45-.89.45-2.31,0-.44,0-.89,0-1.33,0-.15,0-.3,0-.45,0-.61-.18-.75-.78-.71A49.59,49.59,0,0,0,80.4,6.75,49,49,0,0,0,65.64,15.9c-.49.45-.5.68,0,1.11A21.14,21.14,0,0,1,67.83,19.24Z"/><path class="cls-3" d="M65.66,21.76c-.85-.78-1.67-1.59-2.44-2.44-.43-.47-.66-.38-1,.05A48.09,48.09,0,0,0,49.82,47.81c-.07.78-.52,1.79,0,2.3s1.53.09,2.18.16a10.52,10.52,0,0,1,1.61,0c.87.13,1.12-.24,1.16-1.07a41.39,41.39,0,0,1,2.06-10.85A42.54,42.54,0,0,1,65.7,23C66.17,22.49,66.15,22.21,65.66,21.76Z"/><path class="cls-3" d="M101.2,8.53a33.91,33.91,0,0,1,6.72,1,42.9,42.9,0,0,1,19.19,10c.56.5.86.45,1.33-.07.62-.71,1.32-1.35,2-2,.92-.92.93-.93-.09-1.81A48.3,48.3,0,0,0,100.57,3.42c-.51-.13-.73.06-.71.64a20.43,20.43,0,0,1,0,3C99.72,8.21,100.19,8.51,101.2,8.53Z"/><path class="cls-3" d="M145.33,40.19a48.66,48.66,0,0,0-11-20.74c-.42-.48-.69-.62-1.18-.06A19.66,19.66,0,0,1,131,21.53c-.71.6-.71,1-.07,1.71a43,43,0,0,1,10.64,24.41c.09.83-.12,1.9.32,2.43s1.58.1,2.26.19,1.34,0,1.92,0,.74-.24.69-.8A54,54,0,0,0,145.33,40.19Z"/><path class="cls-4" d="M78.06,38.55a5,5,0,1,0,5,4.94A5,5,0,0,0,78.06,38.55Zm0,6.69a1.67,1.67,0,1,1,1.66-1.65A1.67,1.67,0,0,1,78.1,45.24Z"/><path class="cls-4" d="M68,31.85a5,5,0,1,0,5,5A5,5,0,0,0,68,31.85Zm0,6.69a1.68,1.68,0,1,1,1.67-1.65A1.68,1.68,0,0,1,68,38.54Z"/><path class="cls-5" d="M66.29,45.25c-.24,0-.49,0-.73,0C63.8,45.24,63,45.79,63,47a2.3,2.3,0,0,0,.05.39c.19.86,1,1.25,2.47,1.25h.73A1.7,1.7,0,0,0,68,46.93,1.68,1.68,0,0,0,66.29,45.25Z"/><path class="cls-4" d="M112.42,15.92a5,5,0,1,0,5,5A5.06,5.06,0,0,0,112.42,15.92Zm0,6.7a1.68,1.68,0,1,1,1.74-1.68A1.68,1.68,0,0,1,112.37,22.62Z"/><path class="cls-4" d="M105.71,26a5,5,0,1,0,5.05,4.93A5,5,0,0,0,105.71,26Zm0,6.69A1.67,1.67,0,1,1,107.41,31,1.68,1.68,0,0,1,105.68,32.67Z"/><path class="cls-6" d="M102.2,23.09a1.49,1.49,0,0,0,2,0,19.57,19.57,0,0,0,2-2,1.47,1.47,0,0,0,.16-1.75,1.72,1.72,0,0,0-1.55-.94,1.65,1.65,0,0,0-.46.12,7.18,7.18,0,0,0-2.68,2.68A1.43,1.43,0,0,0,102.2,23.09Z"/><path class="cls-7" d="M86.48,15.08a8.38,8.38,0,1,0,8.36,8.39A8.39,8.39,0,0,0,86.48,15.08Zm0,13.4a5,5,0,1,1,5-4.94A5.08,5.08,0,0,1,86.44,28.48Z"/><path class="cls-5" d="M93,33.52c-.38,0-.76,0-1.14,0-1.32,0-2.07.63-2.08,1.67s.76,1.67,2.06,1.69h.42c.24,0,.49,0,.73,0a1.68,1.68,0,1,0,0-3.35Z"/><path class="cls-7" d="M117.47,39.32A8.38,8.38,0,1,0,125.9,31,8.38,8.38,0,0,0,117.47,39.32Zm13.4.17a5,5,0,1,1-5.08-5.13A5.09,5.09,0,0,1,130.87,39.49Z"/><path class="cls-5" d="M113.14,43.57h-.94c-1.49,0-2.27.58-2.27,1.68s.78,1.67,2.28,1.67h.94a1.68,1.68,0,1,0,0-3.35Z"/><path class="cls-8" d="M78.13,41.9a1.67,1.67,0,1,0,1.63,1.69A1.67,1.67,0,0,0,78.13,41.9Z"/><path class="cls-8" d="M68.08,35.19a1.68,1.68,0,1,0,1.63,1.7A1.69,1.69,0,0,0,68.08,35.19Z"/><path class="cls-8" d="M112.46,19.27a1.68,1.68,0,1,0,1.65,1.67A1.68,1.68,0,0,0,112.46,19.27Z"/><path class="cls-8" d="M105.74,29.33A1.67,1.67,0,1,0,107.41,31,1.68,1.68,0,0,0,105.74,29.33Z"/><path class="cls-9" d="M86.49,18.44a5,5,0,1,0,5,5.1A5.08,5.08,0,0,0,86.49,18.44Z"/><path class="cls-9" d="M120.82,39.27a5,5,0,1,0,5-4.91A5.11,5.11,0,0,0,120.82,39.27Z"/><polygon class="cls-10" points="0 85.53 5.72 85.53 5.72 74.69 15.02 74.69 15.02 69.95 5.72 69.95 5.72 62.88 15.71 62.88 15.71 58.12 0 58.12 0 85.53"/><path class="cls-10" d="M35.78,65.49a10.56,10.56,0,0,0-5.33-1.32A9.85,9.85,0,0,0,22.91,67c-1.78,1.9-2.68,4.57-2.68,8a12.85,12.85,0,0,0,1.24,5.78A8.84,8.84,0,0,0,25,84.58a10.56,10.56,0,0,0,5.33,1.32A9.81,9.81,0,0,0,37.86,83q2.7-2.89,2.7-8a12.6,12.6,0,0,0-1.24-5.76A8.76,8.76,0,0,0,35.78,65.49ZM33.7,79.73a3.59,3.59,0,0,1-3.29,1.58,3.65,3.65,0,0,1-3.32-1.59,8.73,8.73,0,0,1-1-4.71,8.6,8.6,0,0,1,1-4.68,3.64,3.64,0,0,1,3.3-1.54,3.67,3.67,0,0,1,3.32,1.55,8.73,8.73,0,0,1,1,4.67A8.93,8.93,0,0,1,33.7,79.73Z"/><path class="cls-10" d="M60.43,65.49a10.5,10.5,0,0,0-5.32-1.32A9.85,9.85,0,0,0,47.57,67c-1.79,1.9-2.68,4.57-2.68,8a12.72,12.72,0,0,0,1.24,5.78,8.72,8.72,0,0,0,3.54,3.79A10.54,10.54,0,0,0,55,85.9,9.81,9.81,0,0,0,62.52,83q2.7-2.89,2.7-8A12.73,12.73,0,0,0,64,69.25,8.78,8.78,0,0,0,60.43,65.49ZM58.36,79.73a3.6,3.6,0,0,1-3.29,1.58,3.67,3.67,0,0,1-3.33-1.59,8.83,8.83,0,0,1-1-4.71,8.7,8.7,0,0,1,1-4.68A3.66,3.66,0,0,1,55,68.79a3.65,3.65,0,0,1,3.32,1.55,8.63,8.63,0,0,1,1,4.67A8.93,8.93,0,0,1,58.36,79.73Z"/><path class="cls-10" d="M83.41,63.07a23.15,23.15,0,0,0,.43,4.18h-.19a6.85,6.85,0,0,0-6-3.08,7,7,0,0,0-5.91,2.88c-1.44,1.92-2.15,4.6-2.15,8s.7,6,2.11,8a6.8,6.8,0,0,0,5.8,2.86,6.57,6.57,0,0,0,6-3.09h.24l1.11,2.72h4.38V56.35H83.41Zm.39,12.67a7.39,7.39,0,0,1-1.12,4.33,3.87,3.87,0,0,1-3.21,1.28,3.49,3.49,0,0,1-3.06-1.55,8.22,8.22,0,0,1-1.07-4.64,8.69,8.69,0,0,1,1.06-4.71,3.35,3.35,0,0,1,3-1.63,3.87,3.87,0,0,1,3.39,1.47,8.56,8.56,0,0,1,1,4.83Z"/><path class="cls-10" d="M109.53,74.43c0,2.47-.36,4.25-1.07,5.32a3.89,3.89,0,0,1-3.47,1.6,2.93,2.93,0,0,1-2.57-1.14,5.84,5.84,0,0,1-.81-3.4V64.57H95.9V78.24a8,8,0,0,0,1.87,5.69,7.32,7.32,0,0,0,5.57,2,8.87,8.87,0,0,0,3.84-.79,6,6,0,0,0,2.61-2.26h.3l.77,2.68h4.38v-21h-5.71Z"/><path class="cls-10" d="M134.71,63.07a23.15,23.15,0,0,0,.43,4.18H135a6.83,6.83,0,0,0-6-3.08A7,7,0,0,0,123,67.05q-2.15,2.88-2.15,8c0,3.38.71,6,2.11,8a6.82,6.82,0,0,0,5.81,2.86,6.54,6.54,0,0,0,5.94-3.09H135l1.11,2.72h4.39V56.35h-5.74Zm.39,12.67A7.4,7.4,0,0,1,134,80.07a3.89,3.89,0,0,1-3.22,1.28,3.49,3.49,0,0,1-3.05-1.55,8.14,8.14,0,0,1-1.07-4.64,8.6,8.6,0,0,1,1.06-4.71,3.33,3.33,0,0,1,3-1.63,3.85,3.85,0,0,1,3.38,1.47c.7,1,1,2.58,1,4.83Z"/><path class="cls-10" d="M161.58,65.49a10.54,10.54,0,0,0-5.33-1.32c-3.23,0-5.75,1-7.53,2.85S146,71.59,146,75a12.85,12.85,0,0,0,1.23,5.78,8.8,8.8,0,0,0,3.55,3.79,10.5,10.5,0,0,0,5.32,1.32A9.81,9.81,0,0,0,163.66,83q2.7-2.89,2.7-8a12.6,12.6,0,0,0-1.24-5.76A8.7,8.7,0,0,0,161.58,65.49Zm-2.07,14.24a3.61,3.61,0,0,1-3.29,1.58,3.66,3.66,0,0,1-3.33-1.59,8.83,8.83,0,0,1-1-4.71,8.61,8.61,0,0,1,1-4.68,4.32,4.32,0,0,1,6.62,0,8.73,8.73,0,0,1,1,4.67A8.94,8.94,0,0,1,159.51,79.73Z"/><polygon class="cls-10" points="183.84 74.82 190.66 64.57 184.18 64.57 180.07 71.24 176 64.57 169.51 64.57 176.26 74.82 169.16 85.53 175.64 85.53 180.07 78.35 184.47 85.53 190.98 85.53 183.84 74.82"/></svg>